<?xml version="1.0" encoding="UTF-8" standalone="no"?>
<svg width="41px" height="5px" viewBox="0 0 41 5" version="1.1" xmlns="http://www.w3.org/2000/svg" xmlns:xlink="http://www.w3.org/1999/xlink">
    <!-- Generator: Sketch 3.7.2 (28276) - http://www.bohemiancoding.com/sketch -->
    <title>Rectangle 2</title>
    <desc>Created with Sketch.</desc>
    <defs></defs>
    <g id="Main" stroke="none" stroke-width="1" fill="none" fill-rule="evenodd">
        <g id="Medium-Device-Desktops" transform="translate(-80.000000, -599.000000)" fill="#EC1D24">
            <path d="M101.249098,599.044313 C101.128312,599.018321 100.840205,599.000885 100.507789,599 C100.169911,599 99.8749254,599.017436 99.7484739,599.043123 C99.7248022,599.048736 96.9268876,599.581042 80.8044333,599.581042 C80.3599313,599.581042 80,599.612954 80,599.651212 L80,602.035054 C80,603.010749 99.3551595,603.756609 100.17153,603.787943 C100.280986,603.79206 100.384575,603.793846 100.50091,603.793846 C100.606523,603.793846 100.719216,603.79206 100.821389,603.787943 C101.648078,603.756609 121,603.010749 121,602.035054 L121,599.651212 C120.998179,599.612954 120.638652,599.581042 120.193341,599.581042 C104.01363,599.581042 101.273377,599.049315 101.249098,599.044313 Z" id="Rectangle-2"></path>
        </g>
    </g>
</svg>